<svg width="881" height="771" viewBox="0 0 881 771" fill="none" xmlns="http://www.w3.org/2000/svg">
<path d="M831.872 87.864L512 399.672L192.128 87.864C186.413 82.2818 178.741 79.1566 170.752 79.1566C162.763 79.1566 155.091 82.2818 149.376 87.864C146.609 90.5754 144.41 93.8116 142.91 97.3831C141.409 100.955 140.636 104.79 140.636 108.664C140.636 112.538 141.409 116.373 142.91 119.945C144.41 123.516 146.609 126.753 149.376 129.464L489.664 461.24C495.64 467.065 503.655 470.325 512 470.325C520.345 470.325 528.36 467.065 534.336 461.24L874.624 129.528C877.411 126.815 879.626 123.571 881.138 119.987C882.651 116.404 883.43 112.554 883.43 108.664C883.43 104.775 882.651 100.924 881.138 97.3409C879.626 93.7575 877.411 90.5134 874.624 87.8C868.909 82.2178 861.237 79.0927 853.248 79.0927C845.259 79.0927 837.587 82.2178 831.872 87.8V87.864Z" fill="white"/>
</svg>
